<svg width="111" height="21" viewBox="0 0 111 21" fill="none" xmlns="http://www.w3.org/2000/svg">
<path d="M0.5 20V20.5H1H5.52717H6.02717V20V12.4418H8.78108C9.90763 12.4418 10.8025 12.6312 11.4902 12.9805L11.4902 12.9806L11.4956 12.9832C12.1945 13.3278 12.8128 13.9172 13.3404 14.7881L13.3407 14.7887L16.6654 20.2597L16.8114 20.5H17.0927H22.0089H22.9209L22.4304 19.7311L18.1155 12.9666L18.1145 12.9651C17.5239 12.0461 16.8412 11.2769 16.0639 10.6643C15.4841 10.1793 14.833 9.78091 14.1131 9.46783L21.1147 1.32601L21.8251 0.5H20.7356H15.7487H15.5138L15.3638 0.680768L8.82915 8.55816H6.02717V1V0.5H5.52717H1H0.5V1V20ZM27.7269 20V20.5H28.2269H32.754H33.254V20V4.38369H44.7086H45.2086V3.88369V1V0.5H44.7086H28.2269H27.7269V1V20ZM50.9142 20V20.5H51.4142H55.517H56.017V20V8.79517L62.2565 17.4096L62.4062 17.6163H62.6614H65.3141H65.5701L65.7198 17.4086L71.9585 8.74809V20V20.5H72.4585H76.5613H77.0613V20V1V0.5H76.5613H72.8476H72.5891L72.4397 0.710852L64.04 12.5607L55.606 0.710081L55.4565 0.5H55.1987H51.4142H50.9142V1V20ZM82.2913 19.7447L81.8428 20.5H82.7212H87.3191H87.6133L87.7562 20.2428L90.0537 16.1071H101.634L103.966 20.2455L104.11 20.5H104.402H109H109.878L109.43 19.7447L98.1474 0.744709L98.002 0.5H97.7174H94.0037H93.7191L93.5738 0.744709L82.2913 19.7447ZM99.5217 12.3582H92.1641L95.8429 5.7144L99.5217 12.3582Z" fill="#4C6FFF" stroke="#4C6FFF"/>
</svg>
